<?xml version="1.0" encoding="UTF-8" standalone="no"?>
<svg width="18px" height="40px" viewBox="0 0 18 40" version="1.1" xmlns="http://www.w3.org/2000/svg" xmlns:xlink="http://www.w3.org/1999/xlink" xmlns:sketch="http://www.bohemiancoding.com/sketch/ns">
    <!-- Generator: Sketch 3.0.4 (8053) - http://www.bohemiancoding.com/sketch -->
    <title>Group 2</title>
    <desc>Created with Sketch.</desc>
    <defs></defs>
    <g id="New-Expense" stroke="none" stroke-width="1" fill="none" fill-rule="evenodd" sketch:type="MSPage">
        <g id="Artboard-3" sketch:type="MSArtboardGroup" transform="translate(-221.000000, -201.000000)">
            <g id="Group-2" sketch:type="MSLayerGroup" transform="translate(221.000000, 201.000000)">
                <path d="M8.81864094,1.23076923 C7.71901177,1.23076923 6.65497773,2.11881242 6.44500222,3.19910307 L5.96879088,5.64913477 C5.75749558,6.73621554 5.07073627,8.33932869 4.42187284,9.24799075 L2.40571337,12.0714009 C1.76266942,12.9719135 1.24137931,14.6033144 1.24137931,15.7075814 L1.24137931,31.4781767 C1.24137931,32.5858712 0.921693292,34.3150489 0.526456586,35.3427016 L0.714922724,34.8526719 C0.320081806,35.8792956 0.313252416,37.5413562 0.707718422,38.5863118 L0.533660889,38.1252267 C0.92452298,39.1606354 2.14272293,40 3.23822034,40 L14.7617797,40 C15.8646045,40 17.0718731,39.1701823 17.4663391,38.1252267 L17.2922816,38.5863118 C17.6831437,37.5509031 17.7582943,35.8465731 17.4597113,34.7780674 L17.6383399,35.4173057 C17.3399467,34.3494791 17.0825846,32.5824434 17.0636369,31.4781763 L16.793035,15.7075814 C16.7740285,14.5998869 16.286956,12.9313227 15.71133,11.9908714 L14.0817734,9.32852024 C13.5033708,8.38353252 12.8618743,6.72942543 12.6518988,5.64913477 L12.1756874,3.19910307 C11.9643921,2.11202231 10.9053685,1.23076923 9.80204872,1.23076923 L8.81864094,1.23076923 Z" id="Rectangle-169" fill="#442805" sketch:type="MSShapeGroup"></path>
                <path d="M10.063682,3.20664119 C10.2274352,2.11539726 9.46876003,1.23076926 8.36675842,1.23076925 L8.82101127,1.23076925 C7.72007301,1.23076924 6.65497773,2.11881242 6.44500222,3.19910307 L5.96879088,5.64913477 C5.75749558,6.73621554 5.07073627,8.33932869 4.42187284,9.24799075 L2.40571337,12.0714009 C1.76266942,12.9719135 1.24137931,14.6033144 1.24137931,15.7075814 L1.24137931,31.4781767 C1.24137931,32.5858712 0.921693292,34.3150489 0.526456586,35.3427016 L0.714922724,34.8526719 C0.320081806,35.8792956 0.313252416,37.5413562 0.707718422,38.5863118 L0.533660889,38.1252267 C0.92452298,39.1606354 2.14340598,39.9999998 3.23776751,39.9999995 L2.54604205,39.9999997 C3.6486168,39.9999994 4.67487302,39.1174068 4.83893176,38.0241272 L10.063682,3.20664119 Z" id="Rectangle-163" fill="#382104" sketch:type="MSShapeGroup"></path>
                <rect id="Rectangle-164" stroke="#FFFFFF" stroke-width="0.5" fill="#CD3939" sketch:type="MSShapeGroup" x="0.620689655" y="16.6153846" width="16.7586207" height="9.23076923"></rect>
                <path d="M1.24137931,17.2307692 L1.24137931,25.2307692 L8.06896552,25.2307692 L9.31034483,17.2307692 L1.24137931,17.2307692 Z" id="Rectangle-165" fill="#BF3434" sketch:type="MSShapeGroup"></path>
                <path d="M7.83243271,5.59774449e-13 C7.27747131,5.59774449e-13 6.73865651,0.440848057 6.63119612,0.973557692 L6.20689655,3.07692308 L12.4137931,3.07692308 L11.9894935,0.973557692 C11.8810303,0.435876626 11.3524469,5.59774449e-13 10.7882569,5.59774449e-13 L7.83243271,5.59774449e-13 Z" id="Rectangle-166" fill="#CD3A3A" sketch:type="MSShapeGroup"></path>
                <path d="M7.82558683,5.59774449e-13 C7.2744063,5.59774449e-13 6.73865651,0.440848057 6.63119612,0.973557692 L6.20689655,3.07692308 L9.93103448,3.07692308 L10.5517241,5.59774449e-13 L7.82558683,5.59774449e-13 Z" id="Rectangle-167" fill="#BF3434" sketch:type="MSShapeGroup"></path>
                <path d="M6.20689655,3.07692308 L6.20689655,3.69230769 L12.4137931,3.69230769 L12.4137931,3.07692308 L6.20689655,3.07692308 Z" id="Rectangle-168" fill="#9C1C1C" sketch:type="MSShapeGroup"></path>
                <ellipse id="Oval-140" fill="#FFFFFF" sketch:type="MSShapeGroup" cx="11.9482759" cy="8.76923077" rx="0.775862069" ry="0.769230769"></ellipse>
                <ellipse id="Oval-141" fill="#FFFFFF" sketch:type="MSShapeGroup" cx="13.9655172" cy="13.2307692" rx="0.931034483" ry="0.923076923"></ellipse>
                <ellipse id="Oval-142" fill="#FFFFFF" sketch:type="MSShapeGroup" cx="11.1724138" cy="11.6923077" rx="0.620689655" ry="0.615384615"></ellipse>
                <ellipse id="Oval-143" fill="#FFFFFF" sketch:type="MSShapeGroup" cx="9.62068966" cy="6.46153846" rx="0.310344828" ry="0.307692308"></ellipse>
            </g>
        </g>
    </g>
</svg>