<?xml version="1.0" encoding="UTF-8" standalone="no"?>
<svg width="31px" height="40px" viewBox="0 0 31 40" version="1.1" xmlns="http://www.w3.org/2000/svg" xmlns:xlink="http://www.w3.org/1999/xlink" xmlns:sketch="http://www.bohemiancoding.com/sketch/ns">
    <!-- Generator: Sketch 3.0.4 (8053) - http://www.bohemiancoding.com/sketch -->
    <title>Group 4</title>
    <desc>Created with Sketch.</desc>
    <defs></defs>
    <g id="New-Expense" stroke="none" stroke-width="1" fill="none" fill-rule="evenodd" sketch:type="MSPage">
        <g id="Artboard-3" sketch:type="MSArtboardGroup" transform="translate(-72.000000, -77.000000)">
            <g id="Group-4" sketch:type="MSLayerGroup" transform="translate(72.000000, 74.000000)">
                <text id="z-6" sketch:type="MSTextLayer" font-family="Futura LT" font-size="6" font-weight="normal" fill="#6E60BB">
                    <tspan x="16.9090909" y="6">z</tspan>
                </text>
                <text id="z-4" sketch:type="MSTextLayer" font-family="Futura LT" font-size="9.57894737" font-weight="normal" fill="#6E60BB">
                    <tspan x="10.5681818" y="10.704918">z</tspan>
                </text>
                <text id="z-5" sketch:type="MSTextLayer" font-family="Futura LT" font-size="5.09090909" font-weight="normal" fill="#6E60BB">
                    <tspan x="6.34090909" y="12.0491803">z</tspan>
                </text>
                <path d="M15.5,15.8427574 L2.11363636,25.3770492 L2.11363636,43 L28.8863636,43 L28.8863636,25.3770492 L15.5,15.8427574 Z" id="Rectangle-134" fill="#988265" sketch:type="MSShapeGroup"></path>
                <path d="M5.63636364,14.8032787 L5.63636364,22.557377 L9.15909091,19.0327869 L9.15909091,14.8032787 L5.63636364,14.8032787 Z" id="Rectangle-137" fill="#A9782D" sketch:type="MSShapeGroup"></path>
                <path d="M15.2137784,14.0983607 L0,25.3770492 L0,27.4918033 L15.436013,16.2131148 L31,27.4918033 L31,25.3770492 L15.2137784,14.0983607 Z" id="Rectangle-135" fill="#F6D14F" sketch:type="MSShapeGroup"></path>
                <g id="Group" transform="translate(2.113636, 15.508197)" sketch:type="MSShapeGroup">
                    <path d="M13.3863636,0.334560707 L0,9.86885246 L0,27.4918033 L26.7727273,27.4918033 L26.7727273,9.86885246 L13.3863636,0.334560707 Z" id="Rectangle-139" fill="#AC7B3C"></path>
                    <rect id="Rectangle-140" fill="#9F743C" x="0" y="26.0819672" width="26.7727273" height="1.40983607"></rect>
                    <rect id="Rectangle-141" fill="#9F743C" x="0" y="23.2622951" width="26.7727273" height="1.40983607"></rect>
                    <rect id="Rectangle-142" fill="#9F743C" x="0" y="20.442623" width="26.7727273" height="1.40983607"></rect>
                    <rect id="Rectangle-143" fill="#9F743C" x="0" y="17.6229508" width="26.7727273" height="1.40983607"></rect>
                    <rect id="Rectangle-144" fill="#9F743C" x="0" y="14.8032787" width="26.7727273" height="1.40983607"></rect>
                    <rect id="Rectangle-145" fill="#9F743C" x="0" y="11.9836066" width="26.7727273" height="1.40983607"></rect>
                </g>
                <rect id="Rectangle-136" fill="#8C632E" sketch:type="MSShapeGroup" x="11.9772727" y="31.7213115" width="7.04545455" height="11.2786885"></rect>
                <ellipse id="Oval-128" fill="#795527" sketch:type="MSShapeGroup" cx="17.6136364" cy="36.6557377" rx="0.704545455" ry="0.704918033"></ellipse>
                <rect id="Rectangle-139" fill="#F6D14F" sketch:type="MSShapeGroup" x="11.2727273" y="41.5901639" width="8.45454545" height="1.40983607"></rect>
                <rect id="Rectangle-138" fill="#B84A4A" sketch:type="MSShapeGroup" x="4.93181818" y="14.0983607" width="4.93181818" height="1.40983607"></rect>
                <rect id="Rectangle-154" fill="#946931" sketch:type="MSShapeGroup" x="10.5681818" y="22.557377" width="9.86363636" height="4.93442623"></rect>
                <rect id="Rectangle-155" fill="#DBBD96" sketch:type="MSShapeGroup" x="11.2727273" y="23.2622951" width="4.22727273" height="3.52459016"></rect>
                <rect id="Rectangle-156" fill="#D0B189" sketch:type="MSShapeGroup" x="15.5" y="23.2622951" width="4.22727273" height="3.52459016"></rect>
            </g>
        </g>
    </g>
</svg>